<svg xmlns="http://www.w3.org/2000/svg" width="18" height="18" viewBox="-5.82 -1.82 80.64 80.64"><path fill="#000000" d="M20 20H46A16 16 0 0 1 62 36V46A16 16 0 0 1 46 62H20A16 16 0 0 1 4 46V36A16 16 0 0 1 20 20ZM18.393 59.11L5.823 67.128A1.5 1.5 0 0 1 3.531 65.655L5.607 50.89ZM52.149 25.81L61.149 11.81A2.2 2.2 0 0 1 64.851 14.19L55.851 28.19A2.2 2.2 0 0 1 52.149 25.81ZM58.2 8A5.8 5.8 0 1 1 69.8 8A5.8 5.8 0 1 1 58.2 8ZM25 31.5A3.5 3.5 0 0 0 21.5 35V42A3.5 3.5 0 0 0 25 45.5H25A3.5 3.5 0 0 0 28.5 42V35A3.5 3.5 0 0 0 25 31.5ZM42 31.5A3.5 3.5 0 0 0 38.5 35V42A3.5 3.5 0 0 0 42 45.5H42A3.5 3.5 0 0 0 45.5 42V35A3.5 3.5 0 0 0 42 31.5Z"/></svg>